<svg width="145" height="40" viewBox="0 0 145 40" fill="none" xmlns="http://www.w3.org/2000/svg">
<path fill-rule="evenodd" clip-rule="evenodd" d="M19.0893 0.264893C8.54516 0.374826 0 9.15602 0 19.9343C0 25.3902 2.21669 30.5727 6.11099 34.2903C4.10172 30.7369 3.04344 26.7014 3.04344 22.5632C3.04344 12.2273 9.59787 3.18622 19.0893 0.264893ZM16.7769 4.28924C11.3732 7.76367 8.18888 13.3303 8.18888 19.427C8.18888 29.4442 16.7669 37.5748 27.7226 37.9465C30.3279 37.0458 32.7372 35.5626 34.7351 33.6357C32.5123 34.6384 30.1433 35.1462 27.681 35.1462C18.1947 35.1462 10.4773 27.4413 10.4773 17.9706C10.4773 13.7676 12.0148 9.72288 14.8064 6.58169C15.3854 5.76367 16.0463 4.9952 16.7769 4.28924ZM36.296 21.2847C36.1193 21.0391 35.8536 20.9146 35.5061 20.9146C35.3098 20.9146 35.1169 20.9512 34.9299 21.0243C34.7365 21.104 34.5749 21.2208 34.456 21.3639C33.7164 22.166 32.8239 22.8023 31.8028 23.2547C30.78 23.7075 29.6626 23.9369 28.4822 23.9369C27.3622 23.9369 26.2936 23.7234 25.3058 23.3022C24.3153 22.8812 23.4444 22.2985 22.7161 21.5702C21.9901 20.8447 21.4073 19.9737 20.984 18.9816C20.5628 17.9912 20.3495 16.9218 20.3495 15.8031C20.3495 14.6849 20.5628 13.6166 20.984 12.6283C21.4083 11.633 21.9916 10.7559 22.7172 10.0214C23.4428 9.28441 24.3135 8.69633 25.3058 8.27355C26.2955 7.85262 27.3641 7.63885 28.4822 7.63885C29.6388 7.63885 30.736 7.90534 31.7434 8.42984C32.7633 8.96123 33.6703 9.56547 34.4205 10.2089C34.652 10.4667 34.9625 10.5975 35.3437 10.5975C35.6467 10.5975 35.9156 10.5075 36.1437 10.3302C36.3871 10.1411 36.5106 9.8709 36.5106 9.52839C36.5106 9.32786 36.46 9.12362 36.3601 8.92282C36.2669 8.73474 36.1567 8.57607 36.0332 8.45077C35.0674 7.46428 33.9257 6.67408 32.6406 6.1019C31.3543 5.52971 29.9551 5.24017 28.4822 5.24017C27.0311 5.24017 25.6497 5.51911 24.3752 6.06905C23.0984 6.61925 21.9728 7.38269 21.0306 8.3366C20.0841 9.29421 19.3273 10.4243 18.7805 11.6961C18.2301 12.9713 17.9511 14.353 17.9511 15.8031C17.9511 17.2555 18.2301 18.6378 18.7805 19.9117C19.3278 21.1845 20.0852 22.3096 21.0314 23.2558C21.9755 24.2012 23.1008 24.9583 24.3752 25.5064C25.6486 26.0569 27.0306 26.3361 28.4822 26.3361C29.9975 26.3361 31.4351 26.0402 32.7543 25.4574C34.0698 24.8783 35.2292 24.0484 36.1943 22.9946C36.4258 22.7628 36.5434 22.4434 36.5434 22.0463C36.5434 21.7676 36.46 21.5109 36.296 21.2847ZM44.1182 22.812C44.7942 23.1042 45.5288 23.252 46.3018 23.252C47.0506 23.252 47.7693 23.11 48.4387 22.8284C49.1063 22.5469 49.7042 22.15 50.2157 21.6478C50.7267 21.1495 51.1402 20.5506 51.4445 19.869C51.746 19.1914 51.9208 18.4322 51.9638 17.6128C51.9635 16.8504 51.8151 16.1098 51.523 15.4216C51.2308 14.7326 50.8236 14.1238 50.3121 13.612C49.8011 13.1016 49.1926 12.6939 48.5034 12.4014C47.8136 12.1098 47.0726 11.9614 46.3018 11.9614C45.5312 11.9614 44.7966 12.1095 44.1182 12.4006C43.439 12.6933 42.8353 13.1008 42.3243 13.6126C41.8115 14.1254 41.404 14.7347 41.1124 15.4216C40.8207 16.1092 40.6726 16.8499 40.6726 17.6229C40.6726 18.3951 40.8207 19.1302 41.1121 19.808C41.404 20.4857 41.8117 21.0894 42.3243 21.6022C42.8361 22.1143 43.4398 22.5212 44.1182 22.812ZM51.9648 11.927C52.6952 12.6581 53.2827 13.5201 53.7121 14.488C54.1431 15.4629 54.3616 16.5175 54.3616 17.6229V24.4841C54.3616 24.8173 54.2443 25.1029 54.0133 25.3339C53.7836 25.5657 53.497 25.6835 53.1624 25.6835C52.8284 25.6835 52.5423 25.5657 52.3119 25.3331C52.0809 25.1026 51.9635 24.8165 51.9635 24.4841V22.9845C51.3052 23.6499 50.5338 24.2364 49.6647 24.7307C48.6332 25.3198 47.5018 25.6189 46.3018 25.6189C45.1972 25.6189 44.1497 25.4165 43.1884 25.0181C42.2242 24.6189 41.3672 24.0586 40.6409 23.3521C39.91 22.6438 39.3267 21.7919 38.9074 20.8197C38.4872 19.8483 38.2745 18.7728 38.2745 17.6229C38.2745 16.5175 38.4817 15.4592 38.8904 14.4769C39.2978 13.4949 39.8692 12.6263 40.5887 11.8955C41.306 11.167 42.1691 10.5847 43.1542 10.1635C44.1399 9.74341 45.2207 9.5299 46.3664 9.5299C47.43 9.5299 48.4573 9.74924 49.4205 10.1816C50.3781 10.6096 51.2345 11.1969 51.9648 11.927ZM64.5766 9.4655C64.9726 9.4655 65.2958 9.58179 65.5366 9.80987C65.7811 10.0409 65.9056 10.328 65.9056 10.6634C65.9056 10.9998 65.7811 11.2875 65.536 11.519C65.2963 11.7471 64.9734 11.8634 64.5766 11.8634C63.8277 11.8634 63.1212 12.0109 62.4759 12.3026C61.8266 12.5961 61.2499 12.9985 60.7623 13.4976C60.2701 13.9987 59.8666 14.5823 59.5623 15.2329C59.2603 15.8795 59.0971 16.5659 59.077 17.2713V24.4512C59.077 24.7839 58.9596 25.0705 58.7284 25.3028C58.4982 25.5338 58.2121 25.6515 57.8775 25.6515C57.5424 25.6515 57.2566 25.5333 57.0277 25.3021C56.7957 25.0705 56.6778 24.7839 56.6778 24.4512V10.6634C56.6778 10.3301 56.7959 10.044 57.0293 9.81278C57.2582 9.58285 57.544 9.4655 57.8775 9.4655C58.2105 9.4655 58.4966 9.58258 58.7281 9.81331C58.9596 10.044 59.077 10.3301 59.077 10.6634V11.7855C59.7143 11.1643 60.4616 10.6379 61.3035 10.2176C62.3016 9.71848 63.402 9.4655 64.5766 9.4655ZM7.92346 35.083C11.4109 38.1241 15.8538 39.7993 20.4366 39.7993C22.3277 39.7993 24.1989 39.5164 26.0095 38.9583C20.8983 38.6256 16.146 36.5723 12.5613 33.1326C8.79763 29.5209 6.72505 24.7638 6.72505 19.7376C6.72505 11.3016 13.8567 2.68887 22.298 0.930986C22.5897 0.810456 22.898 0.695225 23.2135 0.588205C22.5242 0.486483 21.8275 0.421847 21.1359 0.396417C11.3139 3.00781 4.45512 12.1858 4.45512 22.7228C4.45512 27.1122 5.65432 31.3856 7.92346 35.083ZM69.0728 16.3583H80.0786C79.9454 15.7938 79.7298 15.2579 79.4352 14.7628C79.1022 14.2007 78.6842 13.7085 78.1939 13.2992C77.7025 12.8928 77.1398 12.5638 76.5226 12.3222C75.2922 11.8433 73.823 11.8438 72.5965 12.3228C71.9783 12.5638 71.4153 12.8928 70.9261 13.2997C70.4357 13.7069 70.0236 14.1983 69.702 14.7601C69.4161 15.2571 69.2045 15.7938 69.0728 16.3583ZM80.1891 11.8942C80.9152 12.6203 81.508 13.4759 81.952 14.4377C82.3957 15.4014 82.6209 16.4512 82.6209 17.5583C82.6209 17.9424 82.4871 18.2444 82.2227 18.4558C81.9711 18.6555 81.7009 18.7569 81.4201 18.7569H69.0323C69.1478 19.341 69.356 19.8944 69.6522 20.4044C69.9878 20.9818 70.4055 21.4846 70.8945 21.8995C71.3849 22.3175 71.9515 22.6507 72.579 22.8907C73.201 23.1307 73.8673 23.252 74.56 23.252C75.3303 23.252 76.0596 23.1101 76.7285 22.8285C77.3947 22.5482 77.9981 22.1506 78.5242 21.6465C78.7531 21.4184 79.0389 21.3016 79.3724 21.3016C79.7049 21.3016 79.9904 21.4184 80.2222 21.6489C80.454 21.8804 80.5706 22.167 80.5706 22.5018C80.5706 22.8343 80.454 23.1201 80.2222 23.3506C79.4972 24.1646 78.6561 24.7569 77.7319 25.1013C76.8138 25.4446 75.7465 25.6187 74.56 25.6187C73.4559 25.6187 72.4071 25.4165 71.445 25.0181C70.4816 24.6189 69.6246 24.0584 68.8983 23.3522C68.1669 22.6438 67.5841 21.7919 67.165 20.8192C66.7446 19.8486 66.5316 18.7731 66.5316 17.6229C66.5316 16.5183 66.7393 15.4698 67.1481 14.5077C67.5576 13.5456 68.1301 12.6934 68.8477 11.9752C69.5624 11.26 70.4243 10.6783 71.4092 10.2454C72.3923 9.81416 73.4718 9.57363 74.6164 9.52992H74.6172C75.6628 9.52992 76.6786 9.74343 77.6439 10.1644C78.6058 10.5848 79.4622 11.1667 80.1891 11.8942ZM11.92 17.7535C11.9195 17.8094 11.9192 17.8651 11.9192 17.9209C11.9192 26.57 19.1987 33.6068 28.1465 33.6068C30.7054 33.6068 33.1581 33.0436 35.4368 31.9329C36.2842 31.073 37.0471 30.1215 37.7104 29.0984C34.987 30.7986 31.8389 31.6945 28.5671 31.6945C24.1602 31.6945 19.9955 30.068 16.8403 27.1151C14.1301 24.5782 12.4196 21.3035 11.92 17.7535ZM84.9639 22.6023C85.385 22.6023 85.7474 22.7528 86.0431 23.0492C86.339 23.3454 86.4892 23.7075 86.4892 24.1255C86.4892 24.5448 86.339 24.9083 86.0423 25.205C85.7456 25.5009 85.3827 25.6513 84.9639 25.6513C84.544 25.6513 84.1816 25.5009 83.886 25.205C83.5898 24.9096 83.4399 24.5464 83.4399 24.1255C83.4399 23.7059 83.5898 23.3432 83.886 23.0484C84.1795 22.7528 84.5421 22.6023 84.9639 22.6023ZM101.334 21.6587C101.092 21.4436 100.814 21.334 100.508 21.334C100.175 21.334 99.8877 21.4513 99.6594 21.6794C99.1327 22.183 98.529 22.5803 97.8644 22.8614C97.1976 23.1425 96.4676 23.2842 95.6941 23.2842C94.9187 23.2842 94.1849 23.1364 93.5102 22.8444C92.8316 22.5536 92.2284 22.1459 91.7169 21.633C91.2064 21.1242 90.7987 20.5213 90.5057 19.8399C90.2136 19.1647 90.0655 18.4301 90.0655 17.6564C90.0655 16.8815 90.2136 16.1406 90.5057 15.4545C90.7987 14.7634 91.2064 14.1546 91.7177 13.6442C92.2257 13.1356 92.8294 12.7284 93.5113 12.4336C94.1863 12.1419 94.9206 11.9944 95.6941 11.9944C96.467 11.9944 97.1969 12.1374 97.8644 12.4187C98.5357 12.7019 99.1417 13.0794 99.6567 13.5316C99.8885 13.7623 100.175 13.8791 100.508 13.8791C100.794 13.8791 101.055 13.7758 101.285 13.5719C101.521 13.3607 101.641 13.1048 101.641 12.81C101.641 12.5883 101.499 12.3072 101.192 11.9258C100.909 11.5753 100.507 11.2232 99.9963 10.8794C99.4874 10.5372 98.8723 10.2296 98.1672 9.96444C97.4554 9.69848 96.6464 9.56338 95.7539 9.56338H95.7529C94.6053 9.60735 93.5259 9.84788 92.5447 10.2781C91.5672 10.7054 90.7052 11.2879 89.9823 12.0089C89.2636 12.7284 88.6912 13.5795 88.283 14.5398C87.874 15.5027 87.6663 16.5515 87.6663 17.6564C87.6663 18.8026 87.8798 19.8783 88.3004 20.854C88.7208 21.8275 89.3042 22.6794 90.0342 23.3864C90.7614 24.0924 91.6181 24.6524 92.5812 25.0516C93.5415 25.4495 94.5889 25.6513 95.6941 25.6513C96.6414 25.6513 97.4983 25.5276 98.2411 25.2842C98.9812 25.0413 99.6146 24.7493 100.124 24.4169C100.642 24.0789 101.036 23.7289 101.295 23.3779C101.576 22.9991 101.707 22.721 101.707 22.5019C101.707 22.1652 101.581 21.8818 101.334 21.6587ZM109.25 22.812C109.927 23.1042 110.661 23.252 111.433 23.252C112.206 23.252 112.946 23.1042 113.633 22.812C114.323 22.5196 114.933 22.1129 115.444 21.6022C115.955 21.0894 116.363 20.4857 116.656 19.8078C116.946 19.1315 117.094 18.3961 117.094 17.6229C117.094 16.8486 116.946 16.1079 116.656 15.4216C116.363 14.7347 115.955 14.1254 115.444 13.612C114.934 13.1024 114.325 12.6947 113.633 12.4014C112.943 12.1098 112.203 11.9614 111.433 11.9614C110.663 11.9614 109.929 12.1095 109.25 12.4006C108.569 12.6933 107.966 13.1008 107.455 13.6126C106.944 14.1246 106.536 14.7333 106.243 15.4218C105.952 16.1079 105.804 16.8486 105.804 17.6229C105.804 18.3961 105.952 19.1315 106.243 19.808C106.536 20.4867 106.945 21.0907 107.455 21.6027C107.967 22.1143 108.571 22.5212 109.25 22.812ZM117.095 11.9275C117.826 12.6586 118.414 13.5204 118.843 14.488C119.274 15.465 119.493 16.5193 119.493 17.6229C119.493 18.7055 119.28 19.7437 118.859 20.7082C118.439 21.6687 117.862 22.5243 117.145 23.2515C116.424 23.9842 115.568 24.5672 114.599 24.9855C113.624 25.4054 112.559 25.6189 111.433 25.6189C110.327 25.6189 109.279 25.4165 108.32 25.0181C107.355 24.6186 106.498 24.0584 105.772 23.3521C105.041 22.6438 104.457 21.7919 104.039 20.8192C103.618 19.8478 103.404 18.772 103.404 17.6229C103.404 16.5188 103.612 15.4708 104.022 14.5076C104.431 13.5463 105.003 12.6941 105.721 11.9755C106.438 11.2584 107.299 10.6764 108.282 10.2454C109.267 9.81414 110.346 9.57361 111.49 9.5299H111.491C112.562 9.5299 113.589 9.7495 114.551 10.1816C115.51 10.6096 116.366 11.1972 117.095 11.9275ZM140.809 12.734C140.517 12.0619 140.12 11.4733 139.63 10.9835C139.137 10.4913 138.548 10.0953 137.881 9.80656C137.207 9.51438 136.482 9.36656 135.724 9.36656C134.786 9.36656 133.924 9.57769 133.16 9.99305C132.479 10.3629 131.888 10.8537 131.402 11.4542C130.932 10.8548 130.351 10.3639 129.668 9.99305C128.905 9.57769 128.043 9.36656 127.106 9.36656C126.454 9.36656 125.805 9.52709 125.182 9.84312C124.73 10.0733 124.339 10.3242 124.011 10.5936C123.996 10.2892 123.88 10.0275 123.664 9.81319C123.433 9.58272 123.146 9.46537 122.813 9.46537C122.481 9.46537 122.195 9.58246 121.964 9.81319C121.731 10.0442 121.614 10.3303 121.614 10.6633V24.4513C121.614 24.784 121.731 25.0704 121.963 25.303C122.194 25.534 122.48 25.6513 122.813 25.6513C123.148 25.6513 123.434 25.534 123.664 25.3033C123.896 25.0715 124.013 24.7846 124.013 24.4513V14.7708C124.053 13.9342 124.369 13.2169 124.949 12.6376C125.525 12.0587 126.251 11.7655 127.106 11.7655C127.951 11.7655 128.657 12.0566 129.265 12.6545C129.866 13.2471 130.191 14.0029 130.231 14.8919V24.4513C130.231 24.784 130.349 25.0704 130.581 25.303C130.811 25.534 131.097 25.6513 131.431 25.6513C131.764 25.6513 132.05 25.534 132.281 25.3033C132.512 25.0717 132.63 24.7854 132.63 24.4513V14.8919C132.63 14.4675 132.712 14.0606 132.875 13.6826C133.038 13.3046 133.261 12.9687 133.536 12.6831C133.812 12.3973 134.132 12.1769 134.513 12.0105C135.267 11.6868 136.172 11.6855 136.931 12.0097C137.311 12.1756 137.647 12.4026 137.929 12.6855C138.214 12.9713 138.441 13.3067 138.604 13.6821C138.766 14.0577 138.849 14.4651 138.849 14.8919V24.4513C138.849 24.7846 138.965 25.0712 139.197 25.3035C139.429 25.534 139.715 25.6513 140.048 25.6513C140.381 25.6513 140.667 25.534 140.899 25.3022C141.13 25.0691 141.247 24.783 141.247 24.4513V14.8919C141.247 14.1358 141.1 13.4097 140.809 12.734ZM142.651 11.0059H142.505V10.6253C142.537 10.617 142.594 10.6088 142.675 10.6088C142.869 10.6088 142.958 10.6902 142.958 10.8115C142.958 10.9492 142.821 11.0059 142.651 11.0059ZM142.189 11.7506H142.497V11.2245H142.642C142.813 11.2245 142.893 11.2894 142.918 11.4266C142.923 11.4451 142.927 11.4629 142.931 11.4801C142.964 11.6137 142.987 11.7076 143.023 11.7506H143.347C143.323 11.7021 143.291 11.6292 143.25 11.4266C143.209 11.2483 143.145 11.1434 143.015 11.1029V11.0867C143.169 11.0382 143.291 10.9328 143.291 10.771C143.291 10.6414 143.234 10.5445 143.153 10.4875C143.064 10.4229 142.95 10.3823 142.7 10.3823C142.488 10.3823 142.322 10.4049 142.202 10.4212L142.189 10.4229V11.7506ZM142.716 12.123C142.125 12.123 141.679 11.6536 141.679 11.0626C141.679 10.4796 142.125 10.002 142.7 10.002C143.291 10.002 143.727 10.4796 143.727 11.0706C143.727 11.6536 143.291 12.1312 142.716 12.123ZM142.708 12.3982C143.468 12.3982 144.068 11.8072 144.068 11.0626C144.068 10.3177 143.468 9.73493 142.716 9.73493C141.946 9.73493 141.339 10.3177 141.339 11.0626C141.339 11.8072 141.946 12.3982 142.708 12.3982Z" fill="#444444"/>
</svg>
